HIERARCHY
ROOT Hips
{
    OFFSET 0.0 0.0 0.0
    CHANNELS 6 Xposition Yposition Zposition Zrotation Xrotation Yrotation
    JOINT LeftHipJoint
    {
        OFFSET 0.1 0.0 0.0
        CHANNELS 3 Zrotation Xrotation Yrotation
        JOINT LeftUpLeg
        {
            OFFSET 126.69668443284203 0.0 0.0
            CHANNELS 3 Zrotation Xrotation Yrotation
            JOINT LeftLeg
            {
                OFFSET 0.0 0.0 -405.3788363514193
                CHANNELS 3 Zrotation Xrotation Yrotation
                JOINT LeftFoot
                {
                    OFFSET 0.0 0.0 -402.145864469314
                    CHANNELS 3 Zrotation Xrotation Yrotation
                    End Site
                    {
                        OFFSET 0.0 -0.1 0.0
                    }
                }
            }
        }
    }
    JOINT LowerBack
    {
        OFFSET 0.0 0.0 0.1
        CHANNELS 3 Zrotation Xrotation Yrotation
        JOINT Spine
        {
            OFFSET 0.0 0.0 226.35942868753438
            CHANNELS 3 Zrotation Xrotation Yrotation
            JOINT Spine1
            {
                OFFSET 0.0 0.0 251.55984050596942
                CHANNELS 3 Zrotation Xrotation Yrotation
                JOINT LeftShoulder
                {
                    OFFSET 0.1 0.0 0.0
                    CHANNELS 3 Zrotation Xrotation Yrotation
                    JOINT LeftArm
                    {
                        OFFSET 141.4915324658019 0.0 0.0
                        CHANNELS 3 Zrotation Xrotation Yrotation
                        JOINT LeftForeArm
                        {
                            OFFSET 271.11420943564895 0.0 0.0
                            CHANNELS 3 Zrotation Xrotation Yrotation
                            JOINT LeftHand
                            {
                                OFFSET 239.4754736273838 0.0 0.0
                                CHANNELS 3 Zrotation Xrotation Yrotation
                                End Site
                                {
                                    OFFSET 0.1 0.0 0.0
                                }
                            }
                        }
                    }
                }
                JOINT Neck
                {
                    OFFSET 0.0 0.0 0.1
                    CHANNELS 3 Zrotation Xrotation Yrotation
                    JOINT Neck1
                    {
                        OFFSET 0.0 0.0 104.5527078309095
                        CHANNELS 3 Zrotation Xrotation Yrotation
                        End Site
                        {
                            OFFSET 0.0 0.0 111.01380858376669
                        }
                    }
                }
                JOINT RightShoulder
                {
                    OFFSET -0.1 0.0 0.0
                    CHANNELS 3 Zrotation Xrotation Yrotation
                    JOINT RightArm
                    {
                        OFFSET -141.4915324658019 0.0 0.0
                        CHANNELS 3 Zrotation Xrotation Yrotation
                        JOINT RightForeArm
                        {
                            OFFSET -271.11420943564895 0.0 0.0
                            CHANNELS 3 Zrotation Xrotation Yrotation
                            JOINT RightHand
                            {
                                OFFSET -239.4754736273838 0.0 0.0
                                CHANNELS 3 Zrotation Xrotation Yrotation
                                End Site
                                {
                                    OFFSET -0.1 0.0 0.0
                                }
                            }
                        }
                    }
                }
            }
        }
    }
    JOINT RightHipJoint
    {
        OFFSET -0.1 0.0 0.0
        CHANNELS 3 Zrotation Xrotation Yrotation
        JOINT RightUpLeg
        {
            OFFSET -126.69668443284203 0.0 0.0
            CHANNELS 3 Zrotation Xrotation Yrotation
            JOINT RightLeg
            {
                OFFSET 0.0 0.0 -405.3788363514193
                CHANNELS 3 Zrotation Xrotation Yrotation
                JOINT RightFoot
                {
                    OFFSET 0.0 0.0 -402.145864469314
                    CHANNELS 3 Zrotation Xrotation Yrotation
                    End Site
                    {
                        OFFSET 0.0 -0.1 0.0
                    }
                }
            }
        }
    }
}
MOTION
Frames: 4
Frame Time: 0.03333333333333333
0.0 0.0 801.2798519177337 22.337107259685713 17.780624537058934 3.7887135563329766 0.0 0.0 3.975693351829396e-16 -0.8004550366799223 -36.75440736120137 -0.2940667846472087 0.3428233609728555 18.173101436755946 3.6448077126592002 3.1805546814635164e-15 -1.9878466759146977e-16 -2.9817700138720465e-16 0.0 0.0 3.975693351829396e-16 0.14302014352156456 7.584020068125504 0.22242941047110495 -0.5817954475634736 3.772823005776953e-15 8.143041699900851e-16 0.0 0.0 0.0 -24.860205552987654 4.383276099741148 62.77524552603821 -40.35739601102339 -1.3396415436076953e-15 -5.5751346889939565e-15 0.0 0.0 -2.435112177995505e-15 0.0 0.0 0.0 -1.3315614982352442 -2.804859984403569 -9.541035775154098 0.0 0.0 0.0 21.336948514374438 -2.0722964179624253 -62.63384326456699 109.40338567104814 1.5159869110715265e-15 8.867311223798101e-15 0.0 0.0 0.0 0.0 0.0 3.975693351829396e-16 -0.7360334042978527 -34.35669849943594 -3.708554851210427 -1.072345021720175 24.014864219336495 0.4945673937080368 0.0 0.0 0.0
0.0 0.0 801.2798519177337 22.36824068896209 17.766395411249032 3.6472852521402506 0.0 0.0 3.975693351829396e-16 -0.7087893079927443 -36.643750006754416 -0.1546743456801019 0.3382859713593169 18.1214865889814 3.667894157311702 0.0 0.0 1.987846675914698e-16 0.0 0.0 3.975693351829396e-16 0.12682114231631592 7.562346478292887 0.2534012170790485 -0.586378582807908 -4.166285763359027e-15 -1.6116177254872573e-15 0.0 0.0 7.951386703658792e-16 -25.526057140489485 4.470458383436147 62.807874091718546 -40.44796040237434 -2.5917232322819143e-15 2.4347239657658446e-15 0.0 0.0 5.466578358765419e-16 0.0 0.0 7.951386703658792e-16 -1.2663623294882593 -2.765027440097173 -9.457092101754517 0.0 0.0 7.951386703658792e-16 21.424537008005924 -2.1375885500112264 -62.53280777381941 109.34914953344469 -7.35623789987164e-15 1.0379817593241414e-14 3.1805546814635168e-15 -4.4139062980501586e-32 -1.5902773407317584e-15 0.0 0.0 3.975693351829396e-16 -0.6529224687167653 -34.28263715104959 -3.589553301261129 -1.082305648505934 23.98226441529547 0.4807872933007358 0.0 0.0 1.9878466759146975e-16
0.0 0.0 801.2798519177337 22.402151126904812 17.747991911187228 3.472914257852758 0.0 0.0 3.975693351829396e-16 -0.6009439921448415 -36.56789605355668 -0.011183143391743835 0.3273820756596092 18.15575407536212 3.7635587676862605 0.0 0.0 2.4848083448933725e-16 0.0 0.0 3.975693351829396e-16 0.1071496127307246 7.512209096271207 0.2810744739533536 -0.6317985967756785 6.7410401266632954e-15 3.2177700099261794e-15 -3.1805546814635168e-15 -1.987846675914698e-16 -5.517382872562698e-33 -26.07509820926071 4.533970654191234 62.943645969803605 -40.748031158234774 -4.0888794859114905e-15 1.874278718134307e-15 0.0 0.0 -1.5902773407317582e-15 -3.1805546814635168e-15 -1.987846675914698e-16 -5.517382872562698e-33 -1.1281342920282733 -2.844851613715853 -9.279430676033334 -3.1805546814635168e-15 -1.987846675914698e-16 -5.517382872562698e-33 21.560800232149557 -2.1424149054561057 -62.303234958015274 109.39746537617339 3.6759303744718344e-15 -5.19145915992347e-15 -3.1805546814635176e-15 -6.361109362927035e-15 1.5902773407317584e-15 0.0 0.0 3.975693351829396e-16 -0.554235732737248 -34.21566354844023 -3.4931076009989526 -1.119537005580652 24.03708751263945 0.546907613644813 0.0 0.0 0.0
0.0 0.0 801.2798519177337 22.352813349982267 17.73995767946232 3.466962041449693 0.0 0.0 -3.975693351829396e-16 -0.5697099323116825 -36.45746862628532 -0.08013553972372825 0.2874279660111022 18.0996540215704 3.8315887037756626 -3.1805546814635168e-15 4.138037154422024e-33 -1.4908850069360235e-16 0.0 0.0 -3.975693351829396e-16 0.10130159371873851 7.461131735542797 0.20259648985630485 -0.686623186931649 -7.998887733826679e-16 7.903600195093418e-16 0.0 0.0 7.951386703658791e-16 -26.366669393018963 4.33897551061734 63.07475647763912 -40.74787900706585 -2.768241062595083e-15 7.45395143064967e-15 0.0 0.0 2.9817700138720468e-15 0.0 0.0 7.951386703658791e-16 -0.9217627001421651 -2.904572172976729 -9.181811981556997 0.0 0.0 7.951386703658791e-16 21.57085283842649 -2.1240044847150337 -62.079647275867224 109.50427161426214 -8.865973118737402e-15 1.5237930673361718e-15 0.0 0.0 3.1805546814635168e-15 0.0 0.0 -3.975693351829396e-16 -0.5253525762108304 -34.098101514697184 -3.5939711659552827 -1.1808992295080292 23.93990277869821 0.7861097840165633 0.0 0.0 0.0
